<?xml version="1.0" standalone="no"?><svg xmlns="http://www.w3.org/2000/svg" viewBox="0 0 1440 320"><path fill="#ffffff" fill-opacity="1" d="M0,256L20,245.3C40,235,80,213,120,186.7C160,160,200,128,240,133.3C280,139,320,181,360,213.3C400,245,440,267,480,256C520,245,560,203,600,176C640,149,680,139,720,138.7C760,139,800,149,840,128C880,107,920,53,960,53.3C1000,53,1040,107,1080,128C1120,149,1160,139,1200,128C1240,117,1280,107,1320,117.3C1360,128,1400,160,1420,176L1440,192L1440,320L1420,320C1400,320,1360,320,1320,320C1280,320,1240,320,1200,320C1160,320,1120,320,1080,320C1040,320,1000,320,960,320C920,320,880,320,840,320C800,320,760,320,720,320C680,320,640,320,600,320C560,320,520,320,480,320C440,320,400,320,360,320C320,320,280,320,240,320C200,320,160,320,120,320C80,320,40,320,20,320L0,320Z"></path></svg>